C:\GBW_MyPrograms\PredSimResults\Vitruvian_man\IG_v16ms_QR.mot
version=1
nRows=12
nColumns=35
inDegrees=yes
endheader
                time	         pelvis_tilt	           pelvis_tx	           pelvis_ty	       hip_flexion_r	        knee_angle_r	       ankle_angle_r	         mtp_angle_r	       hip_flexion_l	        knee_angle_l	       ankle_angle_l	         mtp_angle_l	    lumbar_extension	          arm_flex_r	          arm_flex_l	        elbow_flex_r	        elbow_flex_l	hamstrings_r/activation	bifemsh_r/activation	glut_max_r/activation	iliopsoas_r/activation	rect_fem_r/activation	  vasti_r/activation	gastroc_r/activation	 soleus_r/activation	tib_ant_r/activation	hamstrings_l/activation	bifemsh_l/activation	glut_max_l/activation	iliopsoas_l/activation	rect_fem_l/activation	  vasti_l/activation	gastroc_l/activation	 soleus_l/activation	tib_ant_l/activation	
          0.53336340	         -1.74751970	          0.85338145	          0.95381210	        -21.49260920	         -4.77727691	          2.17250858	         21.95165536	         29.04419405	         -1.60468389	          4.32698138	          0.20963683	        -11.97854300	         31.15454618	         31.15541773	        104.08481865	        104.08645706	          0.08400842	          0.26159950	          0.05008400	          0.61043601	          0.05003608	          0.05004258	          0.35326132	          0.29064461	          0.05001902	          0.64870621	          0.05128767	          0.10737687	          0.05864579	          0.06028463	          0.05041767	          0.05027949	          0.05351878	          0.43860316	
          0.54403067	         -2.46361714	          0.87593607	          0.95140443	        -20.63229548	         -7.27665826	          0.91667133	         23.00700642	         28.20191861	         -0.84551344	          3.18409296	          0.24632761	        -10.57347182	         31.50890451	         31.50902856	        106.51572725	        106.51722018	          0.08757353	          0.22216390	          0.05007803	          0.51832367	          0.05002922	          0.05002716	          0.29994090	          0.24677528	          0.05001445	          0.58316542	          0.05033491	          0.14400601	          0.05004511	          0.05123568	          0.05310813	          0.05882247	          0.05741349	          0.55076108	
          0.55469794	         -3.18065885	          0.89895199	          0.94932040	        -19.49968625	        -10.23082746	         -0.68537326	         23.88428564	         27.29190663	         -0.23795878	          1.84482642	          0.26270470	         -9.06192045	         31.45677401	         31.45605057	        108.62810843	        108.62943675	          0.08875132	          0.18867205	          0.05011187	          0.44008825	          0.05002331	          0.05001766	          0.25466727	          0.20952572	          0.05001067	          0.51183347	          0.06336759	          0.17644476	          0.05002669	          0.05005052	          0.05035621	          0.05003078	          0.05000940	          0.73744865	
          0.56536521	         -3.89932605	          0.92179240	          0.94794588	        -18.01762291	        -13.65011268	         -2.79935259	         24.49495132	         26.37909872	          0.56320245	         -0.40581067	          0.23721842	         -7.53222606	         31.02295902	         31.02127417	        110.38989950	        110.39105223	          0.07937278	          0.16024712	          0.05005983	          0.37365944	          0.05001514	          0.05000817	          0.21622728	          0.17789856	          0.05002136	          0.46009098	          0.05448292	          0.20054804	          0.05002249	          0.05006507	          0.05083512	          0.05002917	          0.05001128	          0.84655758	
          0.57603248	         -4.61592799	          0.94408281	          0.94746526	        -16.19225034	        -17.49121961	         -5.18340062	         24.25065547	         25.59110574	          1.15174087	         -2.33619978	          0.18259848	         -6.04037086	         30.21249086	         30.20975038	        111.80430178	        111.80526028	          0.06740858	          0.13609281	          0.05003490	          0.31725740	          0.05002019	          0.05000643	          0.18359004	          0.15104548	          0.05004195	          0.41237766	          0.05151013	          0.21802335	          0.05002950	          0.05007852	          0.05089393	          0.05002559	          0.05001118	          0.91032147	
          0.58669975	         -5.31578065	          0.96571123	          0.94793874	        -14.10682696	        -21.62033292	         -7.65207276	         22.74118801	         24.92345092	          1.49620625	         -3.81044716	          0.13917033	         -4.62038145	         29.01824306	         29.01434757	        112.89616286	        112.89691866	          0.05724876	          0.11557947	          0.05003018	          0.26936930	          0.05003419	          0.05000857	          0.15588009	          0.12824595	          0.29367482	          0.37185517	          0.05110652	          0.24211088	          0.05002736	          0.05007217	          0.05121940	          0.05002675	          0.05001263	          0.94758432	
          0.59736701	         -5.98413714	          0.98669754	          0.94922488	        -11.89136502	        -25.82391247	         -9.45429454	         19.95498041	         24.34325470	          1.62699326	         -4.81218993	          0.10539875	         -3.28777282	         27.45271402	         27.44754394	        113.70926024	        113.70981316	          0.05003466	          0.09819943	          0.05002396	          0.22871068	          0.09223385	          0.05000875	          0.13235623	          0.10888858	          0.39658693	          0.33177711	          0.05108355	          0.25630677	          0.05003115	          0.05008090	          0.05144176	          0.05002968	          0.05001404	          0.96935888	
          0.60803428	         -6.60706227	          1.00716793	          0.95118473	         -9.69950959	        -29.81061637	         -9.31268901	         17.35179273	         23.80400441	          1.59198870	         -5.34913845	          0.06139574	         -2.04595340	         25.52869851	         25.52210279	        114.28946289	        114.28981342	          0.05004640	          0.08802729	          0.05001755	          0.19419151	          0.18410243	          0.05000766	          0.11238702	          0.09245372	          0.42947486	          0.29525107	          0.05186708	          0.26308522	          0.05004503	          0.05010533	          0.05102186	          0.05003936	          0.05001954	          0.98207657	
          0.61870155	         -7.16985576	          1.02731597	          0.95380664	         -7.63765743	        -33.29114367	         -9.04590017	         15.15702315	         23.24721257	          1.44176154	         -5.34973673	         -0.01607504	         -0.89464585	         23.24938246	         23.24117560	        114.67255318	        114.67269841	          0.05008850	          0.11778612	          0.05001900	          0.16488940	          0.24949281	          0.05000792	          0.09544579	          0.07850088	          0.42383433	          0.26130515	          0.05090442	          0.27298312	          0.05003137	          0.05007682	          0.05189845	          0.05005055	          0.05003199	          0.97844057	
          0.62936882	         -7.66268174	          1.04723439	          0.95704740	         -5.75285572	        -36.18818930	         -8.55588388	         13.20101821	         22.62970072	          1.22756947	         -4.79607685	         -0.11378705	          0.15895647	         20.64789593	         20.63793398	        114.88625927	        114.88623131	          0.05006967	          0.14260577	          0.05001848	          0.14016806	          0.30136391	          0.05000921	          0.08109562	          0.06665604	          0.40786136	          0.22314176	          0.05100593	          0.26373388	          0.05003510	          0.05008211	          0.05181029	          0.05005174	          0.05003100	          0.84911110	
          0.64003609	         -8.07351284	          1.06698857	          0.96081255	         -4.06617130	        -38.50664398	         -7.69136835	         11.51762332	         21.89996122	          1.05670348	         -4.03576668	         -0.18439757	          1.10188868	         17.77438862	         17.76285015	        114.95277763	        114.95277242	          0.05011081	          0.18410044	          0.05001977	          0.13500339	          0.32893456	          0.05001071	          0.06890304	          0.05660018	          0.37304502	          0.18955560	          0.05085615	          0.24676398	          0.05002971	          0.05006965	          0.05207497	          0.05004418	          0.05002824	          0.72572127	
          0.65070335	         -8.39183508	          1.08664058	          0.96492036	         -2.57407602	        -40.29436952	         -6.81578488	         10.05500731	         21.02584893	          0.98656987	         -3.28143166	         -0.22913194	          1.92372416	         14.68967486	         14.67715928	        114.88969062	        114.89006217	          0.05015064	          0.23123194	          0.05002277	          0.13738556	          0.34081995	          0.05001301	          0.05859836	          0.05002212	          0.34196552	          0.16097131	          0.05057246	          0.22109473	          0.05002508	          0.05006206	          0.05432691	          0.05003977	          0.05002877	          0.62053635	
